<?xml version="1.0" encoding="UTF-8" standalone="no"?>
<svg
   xmlns:dc="http://purl.org/dc/elements/1.1/"
   xmlns:cc="http://creativecommons.org/ns#"
   xmlns:rdf="http://www.w3.org/1999/02/22-rdf-syntax-ns#"
   xmlns:svg="http://www.w3.org/2000/svg"
   xmlns="http://www.w3.org/2000/svg"
   xmlns:sodipodi="http://sodipodi.sourceforge.net/DTD/sodipodi-0.dtd"
   xmlns:inkscape="http://www.inkscape.org/namespaces/inkscape"
   viewBox="0 0 512 512"
   id="svg2"
   version="1.1"
   inkscape:version="0.48.4 r9939"
   width="100%"
   height="100%"
   sodipodi:docname="logo-twitter.svg">
  <metadata
     id="metadata10">
    <rdf:RDF>
      <cc:Work
         rdf:about="">
        <dc:format>image/svg+xml</dc:format>
        <dc:type
           rdf:resource="http://purl.org/dc/dcmitype/StillImage" />
      </cc:Work>
    </rdf:RDF>
  </metadata>
  <defs
     id="defs8" />
  <sodipodi:namedview
     pagecolor="#ffffff"
     bordercolor="#666666"
     borderopacity="1"
     objecttolerance="10"
     gridtolerance="10"
     guidetolerance="10"
     inkscape:pageopacity="0"
     inkscape:pageshadow="2"
     inkscape:window-width="1366"
     inkscape:window-height="688"
     id="namedview6"
     showgrid="false"
     inkscape:zoom="0.4609375"
     inkscape:cx="256"
     inkscape:cy="256"
     inkscape:window-x="0"
     inkscape:window-y="24"
     inkscape:window-maximized="1"
     inkscape:current-layer="svg2" />
  <path
     d="M492 109.5c-17.4 7.7-36 12.9-55.6 15.3 20-12 35.4-31 42.6-53.6-18.7 11.1-39.4 19.2-61.5 23.5C399.8 75.8 374.6 64 346.8 64c-53.5 0-96.8 43.4-96.8 96.9 0 7.6.8 15 2.5 22.1-80.5-4-151.9-42.6-199.6-101.3-8.3 14.3-13.1 31-13.1 48.7 0 33.6 17.2 63.3 43.2 80.7-16-.4-31-4.8-44-12.1v1.2c0 47 33.4 86.1 77.7 95-8.1 2.2-16.7 3.4-25.5 3.4-6.2 0-12.3-.6-18.2-1.8 12.3 38.5 48.1 66.5 90.5 67.3-33.1 26-74.9 41.5-120.3 41.5-7.8 0-15.5-.5-23.1-1.4C62.8 432 113.7 448 168.3 448 346.6 448 444 300.3 444 172.2c0-4.2-.1-8.4-.3-12.5C462.6 146 479 129 492 109.5z"
     id="path4" />
  <path
     style="fill:#ffffff;fill-opacity:1;fill-rule:evenodd;stroke:#000000;stroke-width:2.16949153;stroke-opacity:1"
     d="M 127.53301,445.5148 C 97.876287,440.88303 60.971336,428.16243 35.95352,413.94868 l -14.909452,-8.47071 28.20339,-1.3201 c 18.753369,-0.87775 33.988603,-2.91616 45.46924,-6.08353 20.408232,-5.63042 49.295312,-19.29724 59.841112,-28.31154 l 7.50321,-6.41358 -8.05421,-0.0882 c -9.23919,-0.10114 -29.6287,-7.21729 -40.75935,-14.22544 -11.32615,-7.13123 -25.707397,-22.33214 -32.75958,-34.62672 -9.001733,-15.69336 -8.504913,-18.20676 3.335092,-16.87222 5.294501,0.59676 14.241889,0.39288 19.883088,-0.45307 l 10.25672,-1.53809 -11.98152,-4.86966 C 84.455656,283.55291 75.606467,277.5141 64.353536,264.99813 48.821834,247.72314 39.556487,226.33077 39.508228,207.63385 l -0.02348,-9.09834 9.865491,4.36397 c 5.426022,2.40019 14.802487,5.14441 20.836587,6.09828 l 10.971097,1.73429 -8.848701,-7.84738 C 40.58939,174.75425 30.454144,123.98972 49.286712,87.571547 L 52.578224,81.206468 68.2081,97.660663 c 38.4519,40.479857 91.89254,69.679417 145.92071,79.729967 9.54577,1.77575 21.83778,3.6505 27.31559,4.16611 l 9.95966,0.93749 -0.99261,-15.46676 c -1.86322,-29.03298 8.93239,-56.19329 30.38382,-76.441722 35.88471,-33.872265 89.65921,-35.640666 127.3073,-4.186566 7.24643,6.054211 10.52288,7.464459 15.03569,6.471637 12.47529,-2.744568 28.05178,-8.252021 40.25522,-14.233219 7.03453,-3.447804 13.26661,-5.792193 13.84905,-5.209755 0.58245,0.582439 -1.50239,6.216732 -4.63295,12.520651 -5.72919,11.536738 -19.63064,27.816004 -29.6305,34.698774 l -5.39264,3.71167 7.59322,-1.2799 c 4.17627,-0.70395 16.13559,-3.97944 26.57627,-7.27888 10.44068,-3.29943 18.98305,-5.27491 18.98305,-4.38995 0,3.24945 -28.17642,34.51274 -36.49254,40.49047 l -8.57843,6.16629 -1.45844,21.73939 c -1.96632,29.30999 -4.51265,44.8224 -11.0997,67.62041 -28.93442,100.14265 -105.53377,173.02459 -204.87936,194.93644 -19.15739,4.22541 -81.35755,6.17211 -100.6975,3.15159 z"
     id="path2987"
     inkscape:connector-curvature="0" />
</svg>
