<?xml version="1.0" encoding="UTF-8" standalone="no"?>
<svg
   xmlns:dc="http://purl.org/dc/elements/1.1/"
   xmlns:cc="http://creativecommons.org/ns#"
   xmlns:rdf="http://www.w3.org/1999/02/22-rdf-syntax-ns#"
   xmlns:svg="http://www.w3.org/2000/svg"
   xmlns="http://www.w3.org/2000/svg"
   xmlns:sodipodi="http://sodipodi.sourceforge.net/DTD/sodipodi-0.dtd"
   xmlns:inkscape="http://www.inkscape.org/namespaces/inkscape"
   viewBox="0 0 512 512"
   id="svg2"
   version="1.1"
   inkscape:version="0.48.4 r9939"
   width="100%"
   height="100%"
   sodipodi:docname="logo-github.svg">
  <metadata
     id="metadata10">
    <rdf:RDF>
      <cc:Work
         rdf:about="">
        <dc:format>image/svg+xml</dc:format>
        <dc:type
           rdf:resource="http://purl.org/dc/dcmitype/StillImage" />
        <dc:title></dc:title>
      </cc:Work>
    </rdf:RDF>
  </metadata>
  <defs
     id="defs8" />
  <sodipodi:namedview
     pagecolor="#ffffff"
     bordercolor="#666666"
     borderopacity="1"
     objecttolerance="10"
     gridtolerance="10"
     guidetolerance="10"
     inkscape:pageopacity="0"
     inkscape:pageshadow="2"
     inkscape:window-width="1366"
     inkscape:window-height="688"
     id="namedview6"
     showgrid="false"
     inkscape:zoom="0.4609375"
     inkscape:cx="256"
     inkscape:cy="256"
     inkscape:window-x="0"
     inkscape:window-y="24"
     inkscape:window-maximized="1"
     inkscape:current-layer="svg2" />
  <path
     d="M256 32C132.3 32 32 134.9 32 261.7c0 101.5 64.2 187.5 153.2 217.9 1.4.3 2.6.4 3.8.4 8.3 0 11.5-6.1 11.5-11.4 0-5.5-.2-19.9-.3-39.1-8.4 1.9-15.9 2.7-22.6 2.7-43.1 0-52.9-33.5-52.9-33.5-10.2-26.5-24.9-33.6-24.9-33.6-19.5-13.7-.1-14.1 1.4-14.1h.1c22.5 2 34.3 23.8 34.3 23.8 11.2 19.6 26.2 25.1 39.6 25.1 10.5 0 20-3.4 25.6-6 2-14.8 7.8-24.9 14.2-30.7-49.7-5.8-102-25.5-102-113.5 0-25.1 8.7-45.6 23-61.6-2.3-5.8-10-29.2 2.2-60.8 0 0 1.6-.5 5-.5 8.1 0 26.4 3.1 56.6 24.1 17.9-5.1 37-7.6 56.1-7.7 19 .1 38.2 2.6 56.1 7.7 30.2-21 48.5-24.1 56.6-24.1 3.4 0 5 .5 5 .5 12.2 31.6 4.5 55 2.2 60.8 14.3 16.1 23 36.6 23 61.6 0 88.2-52.4 107.6-102.3 113.3 8 7.1 15.2 21.1 15.2 42.5 0 30.7-.3 55.5-.3 63 0 5.4 3.1 11.5 11.4 11.5 1.2 0 2.6-.1 4-.4C415.9 449.2 480 363.1 480 261.7 480 134.9 379.7 32 256 32z"
     id="path4" />
  <path
     style="fill:#ffffff;fill-opacity:1;fill-rule:evenodd;stroke:#000000;stroke-width:2.16949153;stroke-opacity:1"
     d="M 171.60774,472.92323 C 108.30138,446.61044 58.840164,388.45043 40.149348,318.34513 c -5.013933,-18.80619 -5.689935,-25.46575 -5.689935,-56.0536 0,-30.3644 0.694474,-37.31322 5.544955,-55.48209 C 51.701179,162.9957 69.853898,130.59001 99.864524,99.948895 128.55609,70.654551 163.0071,50.760382 204.41394,39.575506 c 26.38546,-7.127277 74.92324,-7.178852 102.87271,-0.109309 62.13576,15.71661 115.94305,58.70905 145.8312,116.520243 17.39249,33.64145 24.94256,66.25143 24.86359,107.38983 -0.074,38.5101 -7.07085,67.81664 -24.57227,102.92046 -11.34848,22.76248 -18.87034,33.41136 -37.33699,52.85871 -20.92915,22.04067 -37.19635,34.14986 -63.95898,47.61066 -22.70941,11.42216 -32.46796,13.73338 -36.64054,8.67797 -1.31399,-1.59202 -2.54355,-20.6348 -2.97752,-46.11461 -0.70873,-41.61336 -0.9715,-43.8718 -6.37357,-54.77966 -4.85493,-9.80308 -5.13476,-11.37692 -2.02277,-11.37692 6.55186,0 33.50337,-7.92381 44.06129,-12.95412 32.52773,-15.49785 51.36284,-51.29776 51.39683,-97.68995 0.0174,-23.4534 -6.07711,-43.54506 -17.74991,-58.51797 -3.19164,-4.09398 -3.83453,-7.1786 -2.71292,-13.01695 2.11119,-10.98949 1.3433,-33.65813 -1.52618,-45.05387 l -2.46393,-9.78523 -12.3325,1.11827 c -11.97173,1.08556 -32.8727,9.72564 -45.13469,18.65788 -5.0617,3.6872 -6.45124,3.74612 -19.76437,0.83808 -18.75636,-4.09704 -59.73147,-4.46469 -81.58808,-0.73205 l -17.36989,2.96641 -11.47082,-7.05806 c -15.36841,-9.45628 -31.16522,-15.24701 -41.59302,-15.24701 -8.44897,0 -8.61805,0.1596 -11.90893,11.24122 -3.70605,12.47959 -4.23202,28.93765 -1.32499,41.45994 1.71239,7.37628 1.14593,9.36169 -5.48037,19.20832 -10.57233,15.71042 -14.6278,31.52289 -14.41323,56.1979 0.3781,43.48293 14.7562,74.0228 42.77197,90.85002 12.42895,7.46527 42.57152,17.51717 52.52854,17.51717 l 5.33539,0 -4.55886,5.79565 c -2.50737,3.18761 -5.60773,9.96111 -6.88969,15.05221 -2.72492,10.82166 -8.71221,13.92017 -26.61384,13.77306 -15.16821,-0.12453 -23.99269,-5.42783 -38.29401,-23.01329 -6.64749,-8.17404 -15.93217,-17.04242 -20.63261,-19.70753 -9.79053,-5.55117 -20.921256,-6.35742 -24.71187,-1.79001 -2.122605,2.55757 -0.241866,5.42191 10.32765,15.72882 8.32859,8.12164 15.67658,18.10256 20.66855,28.07447 13.65343,27.27396 30.04717,36.73112 60.96599,35.16978 l 16.40682,-0.8285 0,19.16784 c 0,10.5423 -1.01062,21.0562 -2.24582,23.36419 -2.98442,5.57644 -11.03024,5.25785 -26.17356,-1.03634 z"
     id="path2987"
     inkscape:connector-curvature="0" />
</svg>
